Coordinates
version=1
nRows=54
nColumns=12
inDegrees=yes

Units are S.I. units (second, meters, Newtons, ...)
Angles are in degrees

endheader
time	SC_y	SC_z	SC_x	AC_y	AC_z	AC_x	GH_y	GH_z	GH_yy	EL_x	PS_y
       0.0              -38.77          24.57          80.46          43.69          5.035         -3.043          119.5          53.62         -44.35          130.1          112.4
   0.02577              -38.77          24.56          80.46          43.69          5.034         -3.045          119.5          53.61         -44.34          130.1          112.4
   0.05154              -38.77          24.56          80.45           43.7          5.033         -3.048          119.5           53.6         -44.33          130.1          112.4
   0.07731              -38.76          24.56          80.44           43.7          5.031          -3.05          119.5          53.59         -44.32          130.1          112.4
    0.1031              -38.76          24.56          80.44           43.7           5.03         -3.053          119.5          53.59         -44.31          130.1          112.4
    0.1289              -38.76          24.55          80.43          43.71          5.029         -3.057          119.5          53.58          -44.3          130.1          112.4
    0.1546              -38.76          24.55          80.42          43.71          5.028          -3.06          119.5          53.56         -44.29          130.1          112.4
    0.1804              -38.75          24.54          80.42          43.71          5.026         -3.064          119.4          53.55         -44.28          130.0          112.4
    0.2062              -38.75          24.54          80.41          43.72          5.025         -3.067          119.4          53.54         -44.27          130.0          112.3
    0.2319              -38.75          24.54           80.4          43.72          5.023         -3.072          119.4          53.53         -44.25          130.0          112.3
    0.2577              -38.74          24.53          80.39          43.73          5.021         -3.076          119.4          53.51         -44.24          130.0          112.3
    0.2835              -38.74          24.53          80.38          43.73           5.02         -3.081          119.4           53.5         -44.22          130.0          112.3
    0.3092              -38.73          24.52          80.36          43.73          5.017         -3.086          119.4          53.48         -44.21          130.0          112.3
     0.335              -38.73          24.52          80.35          43.74          5.015         -3.091          119.3          53.47         -44.19          129.9          112.3
    0.3608              -38.72          24.51          80.34          43.75          5.013         -3.097          119.3          53.45         -44.17          129.9          112.2
    0.3866              -38.72           24.5          80.32          43.75           5.01         -3.104          119.3          53.43         -44.15          129.9          112.2
    0.4123              -38.71          24.49          80.31          43.76          5.008         -3.111          119.3          53.41         -44.12          129.8          112.2
    0.4381               -38.7          24.49          80.29          43.77          5.004         -3.119          119.2          53.38          -44.1          129.8          112.2
    0.4639               -38.7          24.48          80.27          43.78          5.001         -3.127          119.2          53.36         -44.07          129.8          112.2
    0.4896              -38.69          24.47          80.25          43.78          4.998         -3.137          119.2          53.33         -44.04          129.7          112.1
    0.5154              -38.68          24.46          80.23          43.79          4.994         -3.147          119.1           53.3         -44.01          129.7          112.1
    0.5412              -38.67          24.45           80.2          43.81          4.989         -3.158          119.1          53.26         -43.97          129.6          112.1
     0.567              -38.66          24.43          80.17          43.82          4.984          -3.17          119.0          53.22         -43.93          129.6          112.0
    0.5927              -38.65          24.42          80.14          43.83          4.979         -3.184          119.0          53.18         -43.88          129.5          112.0
    0.6185              -38.64           24.4          80.11          43.85          4.973         -3.199          118.9          53.13         -43.84          129.5          111.9
    0.6443              -38.62          24.38          80.07          43.86          4.966         -3.216          118.8          53.08         -43.78          129.4          111.9
      0.67              -38.61          24.37          80.03          43.88          4.959         -3.235          118.8          53.02         -43.72          129.3          111.8
    0.6958              -38.59          24.34          79.98           43.9           4.95         -3.256          118.7          52.95         -43.65          129.2          111.7
    0.7216              -38.57          24.32          79.93          43.93          4.941         -3.281          118.6          52.88         -43.57          129.1          111.7
    0.7474              -38.54          24.29          79.86          43.95           4.93         -3.308          118.5          52.79         -43.48          129.0          111.6
    0.7731              -38.52          24.26          79.79          43.98          4.918         -3.339          118.4           52.7         -43.38          128.8          111.5
    0.7989              -38.49          24.22          79.71          44.02          4.903         -3.375          118.2          52.59         -43.26          128.7          111.4
    0.8247              -38.45          24.17          79.62          44.06          4.887         -3.417          118.0          52.46         -43.12          128.5          111.2
    0.8504              -38.41          24.12          79.51          44.11          4.868         -3.465          117.9          52.31         -42.97          128.3          111.1
    0.8762              -38.36          24.07          79.38          44.16          4.846         -3.521          117.6          52.13         -42.78          128.0          110.9
     0.902               -38.3           24.0          79.23          44.23           4.82         -3.588          117.4          51.92         -42.56          127.8          110.7
    0.9277              -38.24          23.91          79.06           44.3          4.788         -3.667          117.1          51.68          -42.3          127.4          110.4
    0.9535              -38.15          23.81          78.84           44.4          4.751         -3.762          116.7          51.39         -41.99          127.0          110.1
    0.9793              -38.06          23.69          78.58          44.51          4.706         -3.876          116.2          51.03         -41.62          126.5          109.8
     1.005              -37.94          23.55          78.27          44.65          4.651         -4.016          115.7          50.59         -41.16          125.9          109.3
     1.031              -37.79          23.37          77.88          44.81          4.583         -4.189          115.0          50.06          -40.6          125.1          108.8
     1.057               -37.6          23.14           77.4          45.03          4.498         -4.404          114.1          49.39         -39.89          124.2          108.1
     1.082              -37.37          22.86          76.78          45.29          4.391         -4.676          113.1          48.55          -39.0          123.0          107.2
     1.108              -37.08           22.5          76.01          45.63          4.255         -5.021          111.7          47.47         -37.88          121.5          106.1
     1.134               -36.7          22.03          75.01          46.06           4.08         -5.462          110.0           46.1         -36.43          119.6          104.7
      1.16              -36.21          21.44          73.74          46.62          3.857         -6.029          107.7          44.34         -34.58          117.1          102.9
     1.185               -35.6          20.68          72.11          47.33          3.572         -6.752          104.9          42.09         -32.21          113.9          100.6
     1.211              -34.82          19.73          70.06          48.22          3.213         -7.662          101.3          39.27         -29.23          110.0          97.75
     1.237              -33.87          18.57          67.56           49.3          2.775         -8.771          96.92          35.82          -25.6          105.1          94.23
     1.263              -32.77          17.22          64.66          50.56          2.268         -10.06          91.85          31.83          -21.4          99.52          90.14
     1.289              -31.58          15.76          61.53          51.92           1.72         -11.45          86.36           27.5         -16.84          93.44          85.72
     1.314              -30.39           14.3          58.39          53.29          1.171         -12.84          80.86          23.18         -12.29          87.36           81.3
      1.34              -29.29          12.96           55.5          54.55         0.6638         -14.13          75.79          19.19         -8.084          81.75          77.22
     1.366              -28.34           11.8           53.0          55.63         0.2265         -15.23          71.42          15.74         -4.456          76.91           73.7
